<svg viewBox="0 0 632.6 632.6" xmlns="http://www.w3.org/2000/svg">
  <circle cx="316.3" cy="316.3" r="324.3" fill="#ffffff" />
  <g clip-rule="evenodd" fill-rule="evenodd">
    <!-- Basic vector from https://worldvectorlogo.com/logo/slack-1 -->
    <path d="m133.5 399.9c0 36.8-29.7 66.5-66.5 66.5s-66.5-29.8-66.5-66.5 29.7-66.5 66.5-66.5h66.5zm33.2 0c0-36.8 29.7-66.5 66.5-66.5s66.5 29.7 66.5 66.5v166.2c0 36.8-29.7 66.5-66.5 66.5s-66.5-29.7-66.5-66.5z" fill="#e01e5a"/>
    <path d="m233.2 133c-36.8 0-66.5-29.7-66.5-66.5s29.7-66.5 66.5-66.5 66.5 29.7 66.5 66.5v66.5zm0 33.7c36.8 0 66.5 29.7 66.5 66.5s-29.7 66.5-66.5 66.5h-166.7c-36.8 0-66.5-29.8-66.5-66.5s29.7-66.5 66.5-66.5z" fill="#36c5f0"/>
    <path d="m499.6 233.2c0-36.8 29.7-66.5 66.5-66.5s66.5 29.7 66.5 66.5-29.7 66.5-66.5 66.5h-66.5zm-33.2 0c0 36.8-29.7 66.5-66.5 66.5s-66.5-29.7-66.5-66.5v-166.7c0-36.8 29.7-66.5 66.5-66.5s66.5 29.7 66.5 66.5z" fill="#2eb67d"/>
    <path d="m399.9 499.6c36.8 0 66.5 29.7 66.5 66.5s-29.7 66.5-66.5 66.5-66.5-29.7-66.5-66.5v-66.5zm0-33.2c-36.8 0-66.5-29.7-66.5-66.5s29.7-66.5 66.5-66.5h166.7c36.8 0 66.5 29.7 66.5 66.5s-29.7 66.5-66.5 66.5z" fill="#ecb22e"/>
  </g>
  <circle cx="316.3" cy="316.3" r="200" fill="#ffffff" />
  <circle cx="230" cy="246.3" r="25" fill="#222" />
  <circle cx="230" cy="386.3" r="25" fill="#222" />
  <line x1="300" y1="450" x2="340" y2="190" stroke-width="35" stroke="#222" />
  <line x1="380" y1="450" x2="420" y2="190" stroke-width="35" stroke="#222" />
</svg>